<svg xmlns="http://www.w3.org/2000/svg" width="961.872" height="296.496" viewBox="0 0 721.404 222.372" preserveAspectRatio="xMidYMid" fill="#154481"><path d="M116.417.684c-30.2 4.7-57.2 23.7-71.5 50.3-8.7 16-10.9 26.3-11.7 52.8-.8 30.9 1.1 38.5 12.9 49.4 8.2 7.6 14.5 9.8 26.8 9.3 8.5-.3 10.2-.7 15.8-3.7 7.2-3.9 12.9-9.7 16.9-17.3 2.7-5.2 2.8-5.6 3.3-27.8.6-24.4 1.1-26.9 6.6-32.4 10.9-10.9 28.3-8 35.7 5.9 2.1 3.8 2.2 5.3 2.1 27-.1 20.2-.4 24-2.3 31-4.3 15.9-11.4 27.8-23.3 39.1-16.9 16-36.4 23.2-60.3 22.1-19.2-.9-33.8-6.3-48.5-18.2-9.2-7.4-10.9-8.1-14.9-6-3.3 1.7-4.7 5-3.7 9 .7 2.7 9.5 10.4 18.4 16.2 17.6 11.3 42.2 16.9 63.3 14.4 40.2-4.9 71.6-31.1 83.6-69.8 2.7-8.7 2.7-9.1 2.8-37.3v-28.5l-2.8-5.7c-7.4-15-25.3-24.1-41.3-20.8-16.1 3.3-27.3 14.8-30.4 31-.5 2.9-1 13.3-1 23.2 0 20.2-.7 23-7.5 28.6-12.7 10.4-31.9 4-35.5-12-2-9-.8-44.3 1.9-54.3 7.6-28.5 30.6-51.1 59.6-58.6 11.1-2.8 28.9-2.8 40 0 11 2.9 23.2 9.1 32.6 16.7 9.3 7.5 13.2 8.3 16.8 3.8 3.4-4.4 2.7-7.2-3.1-12.7-11-10.3-25.9-18.3-42.3-22.7-9.2-2.4-29.4-3.5-39-2zm-1.1 30.5c-20.4 5.5-36.1 17.8-44.5 35-6.5 13.2-7.3 18.1-7.4 41.8v20.9l2.8 2.4c3.4 2.9 6.6 3.1 10.1.3l2.6-2v-18.8c0-27.9 3.2-38.2 15.6-50.7 26.2-26.3 71.1-17 85.5 17.6 2.1 5 2.4 7.5 2.9 28.3l.5 22.9 2.8 2.4c3.5 3 6.6 3.1 10.1.3l2.8-2.2-.4-23.6c-.4-20.9-.7-24.3-2.6-30.1-7.1-21.3-25.6-38.3-47.8-44-9.1-2.4-25.2-2.6-33-.5zm-109.4 59.5c-3 3-3.3 5.7-2.8 26.8.5 17.7.8 20.5 3.1 27.7 6.1 18.7 18.6 32.9 36.4 41.2 28 13 61.8 5.3 81.7-18.7 4.7-5.7 11.1-18.7 13.1-26.5 1.1-4.3 1.5-11.5 1.5-27 0-20.8 0-21.2-2.3-23.3-3-2.8-8-2.9-10.7-.2-1.1 1.1-2 2.6-2 3.2-.1.7-.2 10.1-.4 20.8-.4 21.3-1.2 25.6-6.9 36.3-3.7 7.1-13.8 16.7-21.6 20.6-14.8 7.5-31.6 7.6-46.7.1-14.3-7-23.5-18.3-27.4-33.6-1.6-6.3-2-11-2-26.4 0-18.2-.1-18.7-2.3-20.8-2.9-2.8-8-2.9-10.7-.2z"/><path d="M260.605 169.686q-3.3 0-5.55-2.25-2.25-2.25-2.25-5.55V60.336q0-3.45 2.25-5.55 2.25-2.25 5.55-2.25 3.45 0 5.55 2.25 2.25 2.1 2.25 5.55v101.55q0 3.3-2.25 5.55-2.1 2.25-5.55 2.25zm105.6.15q-3.3 0-5.55-2.1-2.1-2.25-2.1-5.55v-36.9q0-8.55-3.15-13.95-3.15-5.4-8.55-7.95-5.25-2.7-12.15-2.7-6.3 0-11.4 2.55-5.1 2.55-8.1 6.9-3 4.2-3 9.75h-9.45q0-9.45 4.5-16.8 4.65-7.5 12.6-11.85 7.95-4.35 17.85-4.35 10.35 0 18.45 4.5 8.25 4.35 12.9 12.9 4.8 8.55 4.8 21v36.9q0 3.3-2.25 5.55-2.1 2.1-5.4 2.1zm-61.65 0q-3.3 0-5.55-2.1-2.1-2.25-2.1-5.55v-66.9q0-3.45 2.1-5.55 2.25-2.1 5.55-2.1 3.45 0 5.55 2.1 2.1 2.1 2.1 5.55v66.9q0 3.3-2.1 5.55-2.1 2.1-5.55 2.1zm117.9-.3q-4.65 0-7.2-4.95l-31.8-67.05q-1.2-2.55-.3-4.95 1.05-2.55 3.9-3.9 2.55-1.35 5.1-.45 2.7.9 4.05 3.45l29.7 64.05h-7.2l29.4-64.05q1.35-2.55 4.05-3.45 2.85-.9 5.7.45 2.7 1.2 3.6 3.75.9 2.55-.3 5.1l-31.8 67.05q-2.25 4.95-6.9 4.95zm54-33.3q-3.3 0-5.55-2.1-2.1-2.1-2.1-5.4 0-3.45 2.1-5.55 2.25-2.1 5.55-2.1h33.45q3.3 0 5.4 2.1 2.1 2.1 2.1 5.55 0 3.3-2.1 5.4-2.1 2.1-5.4 2.1zm68.4 33.45q-3.3 0-5.55-2.25-2.25-2.25-2.25-5.55V60.336q0-3.45 2.25-5.55 2.25-2.25 5.55-2.25h67.8q3.45 0 5.55 2.1 2.1 1.95 2.1 5.25 0 3.15-2.1 5.1-2.1 1.95-5.55 1.95h-60v36.45h43.05q3.45 0 5.55 2.1 2.1 1.95 2.1 5.1 0 3.15-2.1 5.25-2.1 1.95-5.55 1.95h-43.05v37.5h60q3.45 0 5.55 1.95 2.1 1.95 2.1 5.1 0 3.3-2.1 5.4-2.1 1.95-5.55 1.95zm134.4 1.5q-9.6 0-18.3-3-8.7-3-15.15-8.4-6.45-5.4-9.45-12.45-1.5-3.15 0-5.85 1.65-2.7 5.4-3.45 2.7-.6 5.25.9 2.7 1.35 4.05 4.2 1.8 3.75 5.85 6.9 4.2 3.15 10.05 5.1 5.85 1.95 12.3 1.95 7.2 0 13.2-2.25 6.15-2.25 9.9-6.45 3.75-4.35 3.75-10.65 0-7.95-6.3-14.25-6.15-6.3-20.4-7.8-18.6-1.8-29.25-10.95-10.65-9.15-10.65-22.65 0-9.9 5.55-16.8 5.55-6.9 15-10.5 9.6-3.6 21.3-3.6 9.15 0 15.9 2.55 6.9 2.55 12 7.05 5.1 4.5 8.85 10.65 2.1 3.3 1.65 6.3-.3 2.85-2.85 4.5-2.85 1.8-6.15.75-3.3-1.05-4.95-3.9-2.4-4.35-5.85-7.35-3.45-3-8.1-4.65-4.65-1.8-10.95-1.8-11.1-.15-18.6 4.2-7.5 4.2-7.5 13.05 0 4.5 2.25 8.7 2.4 4.05 8.55 7.05 6.3 3 18 4.2 17.85 1.8 27.75 10.95 10.05 9 10.05 23.85 0 8.55-3.6 14.85-3.45 6.3-9.45 10.65-5.85 4.2-13.5 6.3-7.5 2.1-15.6 2.1z" paint-order="markers stroke fill"/></svg>
